<?xml version="1.0" encoding="UTF-8"?><svg id="Layer_1" xmlns="http://www.w3.org/2000/svg" viewBox="0 0 80 80"><defs><style>.cls-1{fill:#157fc1;}.cls-2{fill:#231f20;}</style></defs><path class="cls-1" d="M37.04,42c.26,.42,.52,.85,.77,1.29,.06,.11,.13,.22,.19,.33l.1,.17s.02,.03,.03,.04c.03,.04,.06,.09,.09,.13,.06,.09,.12,.17,.17,.26l.08,.13,.04,.07,.02,.03v.02s.01,0,.01,0c0,0,0,0,0,0,.12-.25,.25-.49,.38-.72,.64-1.23,1.31-2.46,1.96-3.67,1.31-2.42,2.61-4.77,3.77-7.03,3.91-7.69,8.81-15.18,13.79-21.33,.12,.25-.1,1.13,.37,.75,.23-.21,.43-.39,.61-.53,.18-.14,.35-.25,.49-.34,.29-.17,.5-.24,.66-.25,.32-.01,.44,.24,.56,.5,.12,.25-1.23,1.48-.7,1.24-.31,.36-.66,.82-.99,1.26-.33,.44-.65,.87-.88,1.23-.47,.71-.62,1.05,.04,.4,.52-.28,2.01-2.53,2.6-2.62,.59-.11-.04,1.24,.54,1.13,.2-.24,.5-.61,.81-.96,.31-.35,.61-.7,.82-.94,.52-.21-.06,1.24,.35,.77,1.34-1.12,2.93-3.02,4.65-4.62,.05,.14,.21,.17,.26,.29,.02,.06,.02,.14-.05,.27-.06,.12-.18,.29-.37,.53-.33,.33-.66,.66-.99,.99-.33,.34-.65,.69-.98,1.03-.33,.34-.65,.7-.97,1.06-.32,.36-.65,.71-.96,1.09-1.28,1.47-2.53,3.03-3.76,4.63-1.23,1.62-2.44,3.28-3.62,4.99-1.18,1.72-2.35,3.47-3.49,5.27-1.14,1.8-2.27,3.63-3.37,5.5-1.1,1.87-2.19,3.76-3.26,5.68-1.07,1.92-2.12,3.87-3.15,5.84l-.77,1.48-.38,.74-.33,.65-.39,.77-.39,.77-.38,.79-.38,.79-.38,.8c-.51,1.07-1.01,2.14-1.52,3.21-1.49-2.76-2.97-5.52-4.46-8.27-.8-1.5-1.6-3-2.41-4.5-1.6-3-3.18-6.01-4.75-9.02-1.25-2.56,.05-1.13,1.27,.41-.41-.51-.18-.82-.59-1.33,.23-.31,1.27,.41,2.68,2.77-.33-.62-.66-1.23-1-1.85-.26-.72,.23-.31,.38-.51,.33,.62,.66,1.23,.74,1.13,.08-.1,.23-.31,.3-.41-.33-.62-1-1.85-1.33-2.46,.33,.61,.66,1.23,.74,1.13,.08-.1,.23-.31,.3-.41,.74,1.13,1.58,3.18,2.33,4.31l.23-.31c-.59-1.33-1.66-3.08-2.33-4.31,.41,.51,.48,.41,.64,.21,1.07,1.74,1.84,3.9,3.06,5.44l-1-1.85c1.04,.72,2.4,4.21,3.47,5.95"/><g><path class="cls-2" d="M4,58.52h1.35l4.11,9.58,4.18-9.58h1.35l-5.39,12.4h-.27l-5.32-12.4Z"/><path class="cls-2" d="M22.85,67.88l.99,.52c-.33,.64-.7,1.16-1.13,1.55-.43,.39-.91,.69-1.44,.9-.53,.21-1.14,.31-1.81,.31-1.5,0-2.67-.49-3.51-1.47-.84-.98-1.27-2.09-1.27-3.33,0-1.16,.36-2.2,1.07-3.11,.91-1.16,2.12-1.74,3.64-1.74s2.81,.59,3.75,1.78c.66,.84,1,1.88,1.01,3.14H15.89c.02,1.07,.36,1.94,1.02,2.62s1.47,1.02,2.44,1.02c.47,0,.92-.08,1.36-.24,.44-.16,.82-.38,1.13-.65,.31-.27,.64-.7,1-1.3Zm0-2.47c-.16-.63-.39-1.13-.69-1.51-.3-.38-.7-.68-1.19-.91-.5-.23-1.02-.35-1.56-.35-.9,0-1.67,.29-2.32,.87-.47,.42-.83,1.05-1.07,1.9h6.84Z"/><path class="cls-2" d="M25.9,61.75h1.21v1.34c.36-.53,.74-.92,1.14-1.18,.4-.26,.81-.39,1.25-.39,.33,0,.67,.1,1.05,.31l-.62,.99c-.25-.11-.46-.16-.62-.16-.39,0-.77,.16-1.14,.48-.37,.32-.64,.82-.83,1.5-.15,.52-.22,1.58-.22,3.17v3.1h-1.21v-9.17Z"/><path class="cls-2" d="M36.15,62.76l-.76,.78c-.63-.61-1.25-.92-1.85-.92-.38,0-.71,.13-.98,.38-.27,.25-.41,.55-.41,.89,0,.3,.11,.58,.34,.85,.23,.28,.7,.6,1.42,.97,.88,.46,1.48,.89,1.79,1.31,.31,.43,.46,.91,.46,1.44,0,.75-.26,1.39-.79,1.91-.53,.52-1.19,.78-1.98,.78-.53,0-1.03-.12-1.52-.35-.48-.23-.88-.55-1.19-.95l.74-.84c.6,.68,1.24,1.02,1.92,1.02,.47,0,.88-.15,1.21-.45s.5-.66,.5-1.07c0-.34-.11-.64-.33-.9-.22-.26-.72-.58-1.49-.98-.83-.43-1.39-.85-1.69-1.26-.3-.42-.45-.89-.45-1.42,0-.7,.24-1.28,.71-1.74,.48-.46,1.08-.69,1.8-.69,.84,0,1.69,.41,2.55,1.24Z"/><path class="cls-2" d="M47.38,61.75v9.17h-1.16v-1.58c-.49,.6-1.05,1.05-1.66,1.36s-1.29,.46-2.02,.46c-1.3,0-2.41-.47-3.33-1.41-.92-.94-1.38-2.09-1.38-3.43s.46-2.45,1.39-3.39,2.04-1.41,3.35-1.41c.75,0,1.43,.16,2.04,.48,.61,.32,1.14,.8,1.61,1.44v-1.69h1.16Zm-4.72,.9c-.66,0-1.26,.16-1.82,.48-.56,.32-1,.78-1.33,1.36-.33,.58-.49,1.2-.49,1.85s.17,1.26,.5,1.85,.78,1.05,1.33,1.38c.56,.33,1.16,.49,1.8,.49s1.26-.16,1.84-.49,1.02-.77,1.33-1.32c.31-.56,.47-1.18,.47-1.88,0-1.06-.35-1.95-1.05-2.66-.7-.71-1.56-1.07-2.58-1.07Z"/><path class="cls-2" d="M51.06,58.35h1.18v3.41h1.87v1.02h-1.87v8.15h-1.18v-8.15h-1.61v-1.02h1.61v-3.41Z"/><path class="cls-2" d="M63.6,67.88l.99,.52c-.33,.64-.7,1.16-1.13,1.55-.43,.39-.91,.69-1.44,.9-.53,.21-1.14,.31-1.81,.31-1.5,0-2.67-.49-3.51-1.47-.84-.98-1.27-2.09-1.27-3.33,0-1.16,.36-2.2,1.07-3.11,.91-1.16,2.12-1.74,3.64-1.74s2.81,.59,3.75,1.78c.66,.84,1,1.88,1.01,3.14h-8.25c.02,1.07,.36,1.94,1.02,2.62s1.47,1.02,2.44,1.02c.47,0,.92-.08,1.36-.24,.44-.16,.82-.38,1.13-.65,.31-.27,.64-.7,1-1.3Zm0-2.47c-.16-.63-.39-1.13-.69-1.51-.3-.38-.7-.68-1.19-.91-.5-.23-1.02-.35-1.56-.35-.9,0-1.67,.29-2.32,.87-.47,.42-.83,1.05-1.07,1.9h6.84Z"/><path class="cls-2" d="M76,63.66l-.94,.58c-.81-1.07-1.91-1.61-3.31-1.61-1.12,0-2.04,.36-2.78,1.08-.74,.72-1.11,1.59-1.11,2.62,0,.67,.17,1.3,.51,1.89,.34,.59,.81,1.05,1.4,1.37s1.26,.49,1.99,.49c1.35,0,2.45-.54,3.3-1.61l.94,.61c-.44,.66-1.03,1.17-1.77,1.54-.74,.36-1.58,.55-2.52,.55-1.45,0-2.65-.46-3.61-1.38s-1.43-2.04-1.43-3.36c0-.89,.22-1.71,.67-2.47,.45-.76,1.06-1.36,1.84-1.78,.78-.43,1.65-.64,2.62-.64,.61,0,1.19,.09,1.76,.28,.56,.19,1.04,.43,1.44,.72,.39,.3,.73,.68,1,1.14Z"/></g></svg>